# WaveFront *.obj file (generated by Autodesk ATF)

mtllib f402f94f-deda-444b-88ca-c4965a2a5b20.mtl

g Body1

v 2.500000 -0.793623 0.000000
v 2.500000 0.406377 0.000000
v 2.500000 0.406377 0.400000
v 2.500000 -0.793623 0.400000
v 3.700000 -0.793623 0.000000
v 3.700000 -0.793623 0.400000
v 3.700000 0.406377 0.000000
v 3.700000 0.406377 0.400000
v 2.500000 -2.293623 0.000000
v 2.500000 -1.093623 0.000000
v 2.500000 -1.093623 0.400000
v 2.500000 -2.293623 0.400000
v 3.700000 -2.293623 0.000000
v 3.700000 -2.293623 0.400000
v 3.700000 -1.093623 0.000000
v 3.700000 -1.093623 0.400000
v 2.516619 0.706377 0.000000
v 2.516619 1.906377 0.000000
v 2.516619 1.906377 0.400000
v 2.516619 0.706377 0.400000
v 3.716619 0.706377 0.000000
v 3.716619 0.706377 0.400000
v 3.716619 1.906377 0.000000
v 3.716619 1.906377 0.400000
v -5.200000 2.950000 0.000000
v 5.200000 2.950000 0.000000
v 5.200000 -2.950000 0.000000
v -5.200000 -2.950000 0.000000
v -4.000000 1.850000 0.000000
v -4.000000 -1.750000 0.000000
v 1.099999 -1.750000 0.000000
v 1.099999 1.850000 0.000000
v 2.116619 2.506377 0.400000
v 2.116619 -2.493623 0.400000
v 4.216619 -2.493623 0.400000
v 4.216619 2.506377 0.400000
v 4.216619 -2.493623 0.700000
v 4.216619 2.506377 0.700000
v 2.116619 2.506377 0.700000
v 2.116619 -2.493623 0.700000
v 1.099999 1.850000 0.200000
v 1.099999 -1.750000 0.200000
v 1.650000 -1.750000 0.200000
v 1.650000 1.850000 0.200000
v 1.650000 -1.750000 0.700000
v 1.650000 1.850000 0.700000
v -4.550000 1.850000 0.700000
v -4.550000 -1.750000 0.700000
v -4.550000 -1.750000 0.200000
v -4.550000 1.850000 0.200000
v -4.000000 -1.750000 0.200000
v -4.000000 1.850000 0.200000
v -5.000000 -2.750000 0.700000
v -5.000000 2.750000 0.700000
v -5.000000 2.750000 0.800000
v -5.000000 -2.750000 0.800000
v 5.000000 2.750000 0.700000
v 5.000000 2.750000 0.800000
v -5.100000 2.850000 0.700000
v -5.100000 -2.850000 0.700000
v -5.100000 -2.850000 0.800000
v -5.100000 2.850000 0.800000
v 5.100000 -2.850000 0.700000
v 5.100000 -2.850000 0.800000
v 5.100000 2.850000 0.700000
v 5.100000 2.850000 0.800000
v 5.000000 -2.750000 0.700000
v 5.000000 -2.750000 0.800000
v -5.200000 2.950000 0.700000
v 5.200000 2.950000 0.700000
v -5.200000 -2.950000 0.700000
v 5.200000 -2.950000 0.700000
vt -0.000000 0.400000 0.000000
vt -1.200000 0.400000 0.000000
vt -0.000000 0.000000 0.000000
vt -1.200000 0.000000 0.000000
vt -0.000000 0.400000 0.000000
vt -1.200000 0.400000 0.000000
vt -0.000000 0.000000 0.000000
vt -1.200000 0.000000 0.000000
vt -0.000000 0.400000 0.000000
vt -1.200000 0.400000 0.000000
vt -0.000000 0.000000 0.000000
vt -1.200000 0.000000 0.000000
vt -0.000000 0.400000 0.000000
vt -1.200000 0.400000 0.000000
vt -0.000000 0.000000 0.000000
vt -1.200000 0.000000 0.000000
vt -0.000000 0.400000 0.000000
vt -1.200000 0.400000 0.000000
vt -0.000000 0.000000 0.000000
vt -1.200000 0.000000 0.000000
vt -0.000000 0.400000 0.000000
vt -1.200000 0.400000 0.000000
vt -0.000000 0.000000 0.000000
vt -1.200000 0.000000 0.000000
vt -0.000000 0.400000 0.000000
vt -1.200000 0.400000 0.000000
vt -0.000000 0.000000 0.000000
vt -1.200000 0.000000 0.000000
vt -0.000000 0.400000 0.000000
vt -1.200000 0.400000 0.000000
vt -0.000000 0.000000 0.000000
vt -1.200000 0.000000 0.000000
vt -0.000000 0.400000 0.000000
vt -1.200000 0.400000 0.000000
vt -0.000000 0.000000 0.000000
vt -1.200000 0.000000 0.000000
vt -0.000000 0.400000 0.000000
vt -1.200000 0.400000 0.000000
vt -0.000000 0.000000 0.000000
vt -1.200000 0.000000 0.000000
vt -0.000000 0.400000 0.000000
vt -1.200000 0.400000 0.000000
vt -0.000000 0.000000 0.000000
vt -1.200000 0.000000 0.000000
vt -0.000000 0.400000 0.000000
vt -1.200000 0.400000 0.000000
vt -0.000000 0.000000 0.000000
vt -1.200000 0.000000 0.000000
vt -3.700000 0.406377 0.000000
vt -5.200000 -2.950000 0.000000
vt -3.700000 -0.793623 0.000000
vt -3.700000 -1.093623 0.000000
vt -2.500000 -1.093623 0.000000
vt -2.500000 0.406377 0.000000
vt -2.516619 0.706377 0.000000
vt -3.716619 0.706377 0.000000
vt -5.200000 2.950000 0.000000
vt -3.716619 1.906377 0.000000
vt -2.516619 1.906377 0.000000
vt -2.500000 -0.793623 0.000000
vt -1.099999 -1.750000 0.000000
vt -1.099999 1.850000 0.000000
vt -2.500000 -2.293623 0.000000
vt -3.700000 -2.293623 0.000000
vt 5.200000 -2.950000 0.000000
vt 4.000000 -1.750000 0.000000
vt 5.200000 2.950000 0.000000
vt 4.000000 1.850000 0.000000
vt 0.533381 -0.800000 0.000000
vt 1.050000 -2.500000 0.000000
vt 0.533381 0.400000 0.000000
vt 1.050000 2.500000 0.000000
vt 0.550000 0.700000 0.000000
vt 0.550000 1.900000 0.000000
vt -1.050000 2.500000 0.000000
vt -0.650000 1.900000 0.000000
vt -0.650000 0.700000 0.000000
vt -0.666619 0.400000 0.000000
vt 0.533381 -1.100000 0.000000
vt -0.666619 -0.800000 0.000000
vt -0.666619 -1.100000 0.000000
vt -1.050000 -2.500000 0.000000
vt -0.666619 -2.300000 0.000000
vt 0.533381 -2.300000 0.000000
vt -5.000000 0.000000 0.000000
vt -0.000000 0.000000 0.000000
vt -5.000000 0.300000 0.000000
vt -0.000000 0.300000 0.000000
vt -2.100000 0.000000 0.000000
vt -0.000000 0.000000 0.000000
vt -2.100000 0.300000 0.000000
vt -0.000000 0.300000 0.000000
vt -5.000000 0.000000 0.000000
vt -0.000000 0.000000 0.000000
vt -5.000000 0.300000 0.000000
vt -0.000000 0.300000 0.000000
vt -2.100000 0.000000 0.000000
vt -0.000000 0.000000 0.000000
vt -2.100000 0.300000 0.000000
vt -0.000000 0.300000 0.000000
vt 2.549999 -1.800000 0.000000
vt 3.100000 -1.800000 0.000000
vt 2.549999 1.800000 0.000000
vt 3.100000 1.800000 0.000000
vt -3.600000 0.000000 0.000000
vt 0.000000 0.000000 0.000000
vt -3.600000 0.500000 0.000000
vt -0.000000 0.500000 0.000000
vt -3.600000 0.000000 0.000000
vt -0.000000 0.000000 0.000000
vt -3.600000 0.500000 0.000000
vt -0.000000 0.500000 0.000000
vt -2.550000 1.800000 0.000000
vt -3.100000 1.800000 0.000000
vt -2.550000 -1.800000 0.000000
vt -3.100000 -1.800000 0.000000
vt -3.600000 0.000000 0.000000
vt -0.000000 0.000000 0.000000
vt -3.600000 0.200000 0.000000
vt -0.000000 0.200000 0.000000
vt -5.099999 0.000000 0.000000
vt -0.000000 0.000000 0.000000
vt -5.099999 0.200000 0.000000
vt 0.000000 0.200000 0.000000
vt -5.649999 0.700000 0.000000
vt 0.550001 0.700000 0.000000
vt 0.550001 0.200000 0.000000
vt -5.649999 0.200000 0.000000
vt -3.600000 0.000000 0.000000
vt -0.000000 0.000000 0.000000
vt -3.600000 0.200000 0.000000
vt -0.000000 0.200000 0.000000
vt -5.099999 0.000000 0.000000
vt -0.000000 0.000000 0.000000
vt -5.099999 0.200000 0.000000
vt -0.000000 0.200000 0.000000
vt 0.550000 0.700000 0.000000
vt 0.550000 0.200000 0.000000
vt -5.650000 0.700000 0.000000
vt -5.650000 0.200000 0.000000
vt 0.000000 0.700000 0.000000
vt 5.500000 0.700000 0.000000
vt 0.000000 0.800000 0.000000
vt 5.500000 0.800000 0.000000
vt 0.000000 0.700000 0.000000
vt 10.000000 0.700000 0.000000
vt 0.000000 0.800000 0.000000
vt 10.000000 0.800000 0.000000
vt -0.000000 0.700000 0.000000
vt 5.700000 0.700000 0.000000
vt -0.000000 0.800000 0.000000
vt 5.700000 0.800000 0.000000
vt 0.000000 0.700000 0.000000
vt 10.200000 0.700000 0.000000
vt 0.000000 0.800000 0.000000
vt 10.200000 0.800000 0.000000
vt 0.000000 0.700000 0.000000
vt 5.700000 0.700000 0.000000
vt 0.000000 0.800000 0.000000
vt 5.700000 0.800000 0.000000
vt 0.000000 0.700000 0.000000
vt 10.000000 0.700000 0.000000
vt 0.000000 0.800000 0.000000
vt 10.000000 0.800000 0.000000
vt 0.000000 0.700000 0.000000
vt 5.500000 0.700000 0.000000
vt 0.000000 0.800000 0.000000
vt 5.500000 0.800000 0.000000
vt -0.000000 0.700000 0.000000
vt 10.200000 0.700000 0.000000
vt -0.000000 0.800000 0.000000
vt 10.200000 0.800000 0.000000
vt 5.000000 2.750000 0.000000
vt -5.100000 2.850000 0.000000
vt -5.000000 2.750000 0.000000
vt -5.100000 -2.850000 0.000000
vt -5.000000 -2.750000 0.000000
vt 5.100000 -2.850000 0.000000
vt 5.000000 -2.750000 0.000000
vt 5.100000 2.850000 0.000000
vt -0.000000 0.000000 0.000000
vt 10.400000 0.000000 0.000000
vt -0.000000 0.700000 0.000000
vt 10.400000 0.700000 0.000000
vt -0.000000 0.000000 0.000000
vt 5.900000 0.000000 0.000000
vt -0.000000 0.700000 0.000000
vt 5.900000 0.700000 0.000000
vt 0.000000 0.000000 0.000000
vt 10.400000 0.000000 0.000000
vt 0.000000 0.700000 0.000000
vt 10.400000 0.700000 0.000000
vt 0.000000 0.000000 0.000000
vt 5.900000 0.000000 0.000000
vt 0.000000 0.700000 0.000000
vt 5.900000 0.700000 0.000000
vt 5.200000 -2.950000 0.000000
vt 5.200000 2.950000 0.000000
vt 5.100000 2.850000 0.000000
vt -5.200000 2.950000 0.000000
vt -5.100000 2.850000 0.000000
vt -5.200000 -2.950000 0.000000
vt -5.100000 -2.850000 0.000000
vt 5.100000 -2.850000 0.000000
vt 2.116619 2.506377 0.000000
vt 4.216619 2.506377 0.000000
vt 5.000000 2.750000 0.000000
vt 4.216619 -2.493623 0.000000
vt 5.000000 -2.750000 0.000000
vt 2.116619 -2.493623 0.000000
vt -5.000000 -2.750000 0.000000
vt 1.650000 -1.750000 0.000000
vt -4.550000 -1.750000 0.000000
vt 1.650000 1.850000 0.000000
vt -5.000000 2.750000 0.000000
vt -4.550000 1.850000 0.000000
vn 1.000000 -0.000000 -0.000000
vn 1.000000 -0.000000 -0.000000
vn 1.000000 -0.000000 -0.000000
vn 1.000000 -0.000000 -0.000000
vn 0.000000 1.000000 0.000000
vn 0.000000 1.000000 0.000000
vn 0.000000 1.000000 0.000000
vn 0.000000 1.000000 0.000000
vn -1.000000 -0.000000 -0.000000
vn -1.000000 -0.000000 -0.000000
vn -1.000000 -0.000000 -0.000000
vn -1.000000 -0.000000 -0.000000
vn 0.000000 -1.000000 -0.000000
vn 0.000000 -1.000000 -0.000000
vn 0.000000 -1.000000 -0.000000
vn 0.000000 -1.000000 -0.000000
vn 1.000000 -0.000000 -0.000000
vn 1.000000 -0.000000 -0.000000
vn 1.000000 -0.000000 -0.000000
vn 1.000000 -0.000000 -0.000000
vn 0.000000 1.000000 0.000000
vn 0.000000 1.000000 0.000000
vn 0.000000 1.000000 0.000000
vn 0.000000 1.000000 0.000000
vn -1.000000 -0.000000 -0.000000
vn -1.000000 -0.000000 -0.000000
vn -1.000000 -0.000000 -0.000000
vn -1.000000 -0.000000 -0.000000
vn 0.000000 -1.000000 -0.000000
vn 0.000000 -1.000000 -0.000000
vn 0.000000 -1.000000 -0.000000
vn 0.000000 -1.000000 -0.000000
vn 1.000000 -0.000000 -0.000000
vn 1.000000 -0.000000 -0.000000
vn 1.000000 -0.000000 -0.000000
vn 1.000000 -0.000000 -0.000000
vn 0.000000 1.000000 0.000000
vn 0.000000 1.000000 0.000000
vn 0.000000 1.000000 0.000000
vn 0.000000 1.000000 0.000000
vn -1.000000 -0.000000 -0.000000
vn -1.000000 -0.000000 -0.000000
vn -1.000000 -0.000000 -0.000000
vn -1.000000 -0.000000 -0.000000
vn 0.000000 -1.000000 -0.000000
vn 0.000000 -1.000000 -0.000000
vn 0.000000 -1.000000 -0.000000
vn 0.000000 -1.000000 -0.000000
vn -0.000000 0.000000 -1.000000
vn -0.000000 0.000000 -1.000000
vn -0.000000 0.000000 -1.000000
vn -0.000000 0.000000 -1.000000
vn -0.000000 0.000000 -1.000000
vn -0.000000 0.000000 -1.000000
vn -0.000000 0.000000 -1.000000
vn -0.000000 0.000000 -1.000000
vn -0.000000 0.000000 -1.000000
vn -0.000000 0.000000 -1.000000
vn -0.000000 0.000000 -1.000000
vn -0.000000 0.000000 -1.000000
vn -0.000000 0.000000 -1.000000
vn -0.000000 0.000000 -1.000000
vn -0.000000 0.000000 -1.000000
vn -0.000000 0.000000 -1.000000
vn -0.000000 0.000000 -1.000000
vn -0.000000 0.000000 -1.000000
vn -0.000000 0.000000 -1.000000
vn -0.000000 0.000000 -1.000000
vn -0.000000 -0.000000 1.000000
vn -0.000000 -0.000000 1.000000
vn -0.000000 -0.000000 1.000000
vn -0.000000 -0.000000 1.000000
vn -0.000000 -0.000000 1.000000
vn -0.000000 -0.000000 1.000000
vn -0.000000 -0.000000 1.000000
vn -0.000000 -0.000000 1.000000
vn -0.000000 -0.000000 1.000000
vn -0.000000 -0.000000 1.000000
vn -0.000000 -0.000000 1.000000
vn -0.000000 -0.000000 1.000000
vn -0.000000 -0.000000 1.000000
vn -0.000000 -0.000000 1.000000
vn -0.000000 -0.000000 1.000000
vn -0.000000 -0.000000 1.000000
vn -1.000000 -0.000000 -0.000000
vn -1.000000 -0.000000 -0.000000
vn -1.000000 -0.000000 -0.000000
vn -1.000000 -0.000000 -0.000000
vn 0.000000 -1.000000 -0.000000
vn 0.000000 -1.000000 -0.000000
vn 0.000000 -1.000000 -0.000000
vn 0.000000 -1.000000 -0.000000
vn 1.000000 -0.000000 -0.000000
vn 1.000000 -0.000000 -0.000000
vn 1.000000 -0.000000 -0.000000
vn 1.000000 -0.000000 -0.000000
vn 0.000000 1.000000 0.000000
vn 0.000000 1.000000 0.000000
vn 0.000000 1.000000 0.000000
vn 0.000000 1.000000 0.000000
vn -0.000000 -0.000000 1.000000
vn -0.000000 -0.000000 1.000000
vn -0.000000 -0.000000 1.000000
vn -0.000000 -0.000000 1.000000
vn -1.000000 0.000000 -0.000000
vn -1.000000 0.000000 -0.000000
vn -1.000000 0.000000 -0.000000
vn -1.000000 0.000000 -0.000000
vn 1.000000 0.000000 0.000000
vn 1.000000 0.000000 0.000000
vn 1.000000 0.000000 0.000000
vn 1.000000 0.000000 0.000000
vn -0.000000 -0.000000 1.000000
vn -0.000000 -0.000000 1.000000
vn -0.000000 -0.000000 1.000000
vn -0.000000 -0.000000 1.000000
vn 1.000000 0.000000 -0.000000
vn 1.000000 0.000000 -0.000000
vn 1.000000 0.000000 -0.000000
vn 1.000000 0.000000 -0.000000
vn -0.000000 -1.000000 0.000000
vn -0.000000 -1.000000 0.000000
vn -0.000000 -1.000000 0.000000
vn -0.000000 -1.000000 0.000000
vn -0.000000 -1.000000 0.000000
vn -0.000000 -1.000000 0.000000
vn -0.000000 -1.000000 0.000000
vn -0.000000 -1.000000 0.000000
vn -1.000000 -0.000000 -0.000000
vn -1.000000 -0.000000 -0.000000
vn -1.000000 -0.000000 -0.000000
vn -1.000000 -0.000000 -0.000000
vn -0.000000 1.000000 -0.000000
vn -0.000000 1.000000 -0.000000
vn -0.000000 1.000000 -0.000000
vn -0.000000 1.000000 -0.000000
vn -0.000000 1.000000 -0.000000
vn -0.000000 1.000000 -0.000000
vn -0.000000 1.000000 -0.000000
vn -0.000000 1.000000 -0.000000
vn 1.000000 0.000000 0.000000
vn 1.000000 0.000000 0.000000
vn 1.000000 0.000000 0.000000
vn 1.000000 0.000000 0.000000
vn 0.000000 -1.000000 0.000000
vn 0.000000 -1.000000 0.000000
vn 0.000000 -1.000000 0.000000
vn 0.000000 -1.000000 0.000000
vn -1.000000 0.000000 0.000000
vn -1.000000 0.000000 0.000000
vn -1.000000 0.000000 0.000000
vn -1.000000 0.000000 0.000000
vn 0.000000 -1.000000 0.000000
vn 0.000000 -1.000000 0.000000
vn 0.000000 -1.000000 0.000000
vn 0.000000 -1.000000 0.000000
vn 1.000000 0.000000 -0.000000
vn 1.000000 0.000000 -0.000000
vn 1.000000 0.000000 -0.000000
vn 1.000000 0.000000 -0.000000
vn 0.000000 1.000000 -0.000000
vn 0.000000 1.000000 -0.000000
vn 0.000000 1.000000 -0.000000
vn 0.000000 1.000000 -0.000000
vn -1.000000 0.000000 0.000000
vn -1.000000 0.000000 0.000000
vn -1.000000 0.000000 0.000000
vn -1.000000 0.000000 0.000000
vn 0.000000 1.000000 0.000000
vn 0.000000 1.000000 0.000000
vn 0.000000 1.000000 0.000000
vn 0.000000 1.000000 0.000000
vn 0.000000 0.000000 1.000000
vn 0.000000 0.000000 1.000000
vn 0.000000 0.000000 1.000000
vn 0.000000 0.000000 1.000000
vn 0.000000 0.000000 1.000000
vn 0.000000 0.000000 1.000000
vn 0.000000 0.000000 1.000000
vn 0.000000 0.000000 1.000000
vn 0.000000 1.000000 0.000000
vn 0.000000 1.000000 0.000000
vn 0.000000 1.000000 0.000000
vn 0.000000 1.000000 0.000000
vn -1.000000 0.000000 0.000000
vn -1.000000 0.000000 0.000000
vn -1.000000 0.000000 0.000000
vn -1.000000 0.000000 0.000000
vn 0.000000 -1.000000 0.000000
vn 0.000000 -1.000000 0.000000
vn 0.000000 -1.000000 0.000000
vn 0.000000 -1.000000 0.000000
vn 1.000000 0.000000 -0.000000
vn 1.000000 0.000000 -0.000000
vn 1.000000 0.000000 -0.000000
vn 1.000000 0.000000 -0.000000
vn 0.000000 0.000000 1.000000
vn 0.000000 0.000000 1.000000
vn 0.000000 0.000000 1.000000
vn 0.000000 0.000000 1.000000
vn 0.000000 0.000000 1.000000
vn 0.000000 0.000000 1.000000
vn 0.000000 0.000000 1.000000
vn 0.000000 0.000000 1.000000
vn 0.000000 0.000000 1.000000
vn 0.000000 0.000000 1.000000
vn 0.000000 0.000000 1.000000
vn 0.000000 0.000000 1.000000
vn 0.000000 0.000000 1.000000
vn 0.000000 0.000000 1.000000
vn 0.000000 0.000000 1.000000
vn 0.000000 0.000000 1.000000
vn 0.000000 0.000000 1.000000
vn 0.000000 0.000000 1.000000
vn 0.000000 0.000000 1.000000
vn 0.000000 0.000000 1.000000
usemtl Steel_-_Satin
f 1/1/1 2/2/2 4/3/3
f 4/3/3 2/2/2 3/4/4
f 5/5/5 1/6/6 6/7/7
f 6/7/7 1/6/6 4/8/8
f 7/9/9 5/10/10 8/11/11
f 8/11/11 5/10/10 6/12/12
f 2/13/13 7/14/14 3/15/15
f 3/15/15 7/14/14 8/16/16
f 9/17/17 10/18/18 12/19/19
f 12/19/19 10/18/18 11/20/20
f 13/21/21 9/22/22 14/23/23
f 14/23/23 9/22/22 12/24/24
f 15/25/25 13/26/26 16/27/27
f 16/27/27 13/26/26 14/28/28
f 10/29/29 15/30/30 11/31/31
f 11/31/31 15/30/30 16/32/32
f 17/33/33 18/34/34 20/35/35
f 20/35/35 18/34/34 19/36/36
f 21/37/37 17/38/38 22/39/39
f 22/39/39 17/38/38 20/40/40
f 23/41/41 21/42/42 24/43/43
f 24/43/43 21/42/42 22/44/44
f 18/45/45 23/46/46 19/47/47
f 19/47/47 23/46/46 24/48/48
f 7/49/49 27/50/50 5/51/51
f 5/51/51 27/50/50 15/52/52
f 5/51/51 15/52/52 10/53/53
f 2/54/54 17/55/55 7/49/49
f 7/49/49 17/55/55 21/56/56
f 7/49/49 21/56/56 26/57/57
f 26/57/57 21/56/56 23/58/58
f 26/57/57 23/58/58 18/59/59
f 1/60/60 31/61/61 2/54/54
f 2/54/54 31/61/61 32/62/62
f 2/54/54 32/62/62 17/55/55
f 17/55/55 32/62/62 18/59/59
f 18/59/59 32/62/62 26/57/57
f 31/61/61 1/60/60 10/53/53
f 10/53/53 1/60/60 5/51/51
f 9/63/63 13/64/64 27/50/50
f 27/50/50 13/64/64 15/52/52
f 10/53/53 9/63/63 31/61/61
f 31/61/61 9/63/63 28/65/65
f 31/61/61 28/65/65 30/66/66
f 30/66/66 28/65/65 25/67/67
f 30/66/66 25/67/67 29/68/68
f 29/68/68 25/67/67 32/62/62
f 32/62/62 25/67/67 26/57/57
f 28/65/65 9/63/63 27/50/50
f 26/57/57 27/50/50 7/49/49
f 6/69/69 35/70/70 8/71/71
f 8/71/71 35/70/70 36/72/72
f 8/71/71 36/72/72 22/73/73
f 22/73/73 36/72/72 24/74/74
f 24/74/74 36/72/72 33/75/75
f 24/74/74 33/75/75 19/76/76
f 19/76/76 33/75/75 20/77/77
f 20/77/77 33/75/75 3/78/78
f 20/77/77 3/78/78 8/71/71
f 35/70/70 6/69/69 16/79/79
f 16/79/79 6/69/69 4/80/80
f 16/79/79 4/80/80 11/81/81
f 11/81/81 4/80/80 34/82/82
f 11/81/81 34/82/82 12/83/83
f 12/83/83 34/82/82 14/84/84
f 14/84/84 34/82/82 35/70/70
f 14/84/84 35/70/70 16/79/79
f 4/80/80 3/78/78 34/82/82
f 34/82/82 3/78/78 33/75/75
f 22/73/73 20/77/77 8/71/71
f 37/85/85 38/86/86 35/87/87
f 35/87/87 38/86/86 36/88/88
f 38/89/89 39/90/90 36/91/91
f 36/91/91 39/90/90 33/92/92
f 39/93/93 40/94/94 33/95/95
f 33/95/95 40/94/94 34/96/96
f 40/97/97 37/98/98 34/99/99
f 34/99/99 37/98/98 35/100/100
f 42/101/101 43/102/102 41/103/103
f 41/103/103 43/102/102 44/104/104
f 45/105/105 46/106/106 43/107/107
f 43/107/107 46/106/106 44/108/108
f 47/109/109 48/110/110 50/111/111
f 50/111/111 48/110/110 49/112/112
f 52/113/113 50/114/114 51/115/115
f 51/115/115 50/114/114 49/116/116
f 30/117/117 29/118/118 51/119/119
f 51/119/119 29/118/118 52/120/120
f 29/121/121 32/122/122 52/123/123
f 52/123/123 32/122/122 41/124/124
f 52/123/123 41/124/124 47/125/125
f 47/125/125 41/124/124 46/126/126
f 46/126/126 41/124/124 44/127/127
f 47/125/125 50/128/128 52/123/123
f 32/129/129 31/130/130 41/131/131
f 41/131/131 31/130/130 42/132/132
f 31/133/133 30/134/134 42/135/135
f 42/135/135 30/134/134 51/136/136
f 42/135/135 51/136/136 48/137/137
f 48/137/137 51/136/136 49/138/138
f 48/137/137 45/139/139 42/135/135
f 42/135/135 45/139/139 43/140/140
f 53/141/141 54/142/142 56/143/143
f 56/143/143 54/142/142 55/144/144
f 54/145/145 57/146/146 55/147/147
f 55/147/147 57/146/146 58/148/148
f 59/149/149 60/150/150 62/151/151
f 62/151/151 60/150/150 61/152/152
f 60/153/153 63/154/154 61/155/155
f 61/155/155 63/154/154 64/156/156
f 63/157/157 65/158/158 64/159/159
f 64/159/159 65/158/158 66/160/160
f 67/161/161 53/162/162 68/163/163
f 68/163/163 53/162/162 56/164/164
f 57/165/165 67/166/166 58/167/167
f 58/167/167 67/166/166 68/168/168
f 65/169/169 59/170/170 66/171/171
f 66/171/171 59/170/170 62/172/172
f 58/173/173 62/174/174 55/175/175
f 55/175/175 62/174/174 61/176/176
f 55/175/175 61/176/176 56/177/177
f 56/177/177 61/176/176 64/178/178
f 56/177/177 64/178/178 68/179/179
f 68/179/179 64/178/178 58/173/173
f 58/173/173 64/178/178 66/180/180
f 58/173/173 66/180/180 62/174/174
f 26/181/181 25/182/182 70/183/183
f 70/183/183 25/182/182 69/184/184
f 25/185/185 28/186/186 69/187/187
f 69/187/187 28/186/186 71/188/188
f 28/189/189 27/190/190 71/191/191
f 71/191/191 27/190/190 72/192/192
f 27/193/193 26/194/194 72/195/195
f 72/195/195 26/194/194 70/196/196
f 72/197/197 70/198/198 65/199/199
f 65/199/199 70/198/198 69/200/200
f 65/199/199 69/200/200 59/201/201
f 59/201/201 69/200/200 71/202/202
f 59/201/201 71/202/202 60/203/203
f 60/203/203 71/202/202 72/197/197
f 60/203/203 72/197/197 63/204/204
f 63/204/204 72/197/197 65/199/199
f 39/205/205 38/206/206 57/207/207
f 57/207/207 38/206/206 37/208/208
f 57/207/207 37/208/208 67/209/209
f 67/209/209 37/208/208 40/210/210
f 67/209/209 40/210/210 53/211/211
f 53/211/211 40/210/210 45/212/212
f 53/211/211 45/212/212 48/213/213
f 40/210/210 39/205/205 45/212/212
f 45/212/212 39/205/205 46/214/214
f 46/214/214 39/205/205 54/215/215
f 46/214/214 54/215/215 47/216/216
f 47/216/216 54/215/215 48/213/213
f 48/213/213 54/215/215 53/211/211
f 54/215/215 39/205/205 57/207/207
# 72 vertices
# 216 texture params
# 216 normals
# 156 facets

# 1 groups
