# WaveFront *.obj file (generated by Autodesk ATF)

mtllib 150b7f90-54d3-440d-99ee-e3bb93d9eda1.mtl

g Body2

v 0.734648 1.768510 4.100000
v 0.726130 1.703805 4.100000
v 0.701154 1.643510 4.100000
v 0.661425 1.591733 4.100000
v 0.609648 1.552004 4.100000
v 0.549353 1.527029 4.100000
v 0.484648 1.518510 4.100000
v 0.419943 1.527029 4.100000
v 0.359648 1.552004 4.100000
v 0.307871 1.591733 4.100000
v 0.268142 1.643510 4.100000
v 0.243167 1.703805 4.100000
v 0.234648 1.768510 4.100000
v 0.243167 1.833215 4.100000
v 0.268142 1.893510 4.100000
v 0.307871 1.945287 4.100000
v 0.359648 1.985016 4.100000
v 0.419943 2.009992 4.100000
v 0.484648 2.018510 4.100000
v 0.549353 2.009992 4.100000
v 0.609648 1.985016 4.100000
v 0.661425 1.945287 4.100000
v 0.701154 1.893510 4.100000
v 0.726130 1.833215 4.100000
v 0.734648 1.768510 4.200000
v 0.726130 1.833215 4.200000
v 0.701154 1.893510 4.200000
v 0.661425 1.945287 4.200000
v 0.609648 1.985016 4.200000
v 0.549353 2.009992 4.200000
v 0.484648 2.018510 4.200000
v 0.419943 2.009992 4.200000
v 0.359648 1.985016 4.200000
v 0.307871 1.945287 4.200000
v 0.268142 1.893510 4.200000
v 0.243167 1.833215 4.200000
v 0.234648 1.768510 4.200000
v 0.243167 1.703805 4.200000
v 0.268142 1.643510 4.200000
v 0.307871 1.591733 4.200000
v 0.359648 1.552004 4.200000
v 0.419943 1.527029 4.200000
v 0.484648 1.518510 4.200000
v 0.549353 1.527029 4.200000
v 0.609648 1.552004 4.200000
v 0.661425 1.591733 4.200000
v 0.701154 1.643510 4.200000
v 0.726130 1.703805 4.200000
v 3.150000 -2.000000 3.600000
v 3.150000 -2.000000 4.100000
v 3.250000 -2.000000 4.100000
v 3.250000 -2.000000 3.600000
v 3.150000 2.000000 3.600000
v 3.250000 2.000000 3.600000
v 3.150000 2.000000 4.100000
v 3.250000 2.000000 4.100000
v 3.150000 2.150000 4.100000
v 3.150000 2.150000 0.100000
v 3.150000 -2.150000 0.100000
v 3.150000 -2.150000 4.100000
v -3.150000 -2.150000 0.100000
v -3.150000 -2.150000 4.100000
v -3.150000 2.150000 0.100000
v -3.150000 2.150000 4.100000
v -3.250000 -2.250000 4.200000
v 3.250000 -2.250000 4.200000
v 3.250000 2.250000 4.200000
v -3.250000 2.250000 4.200000
v 3.250000 -2.250000 0.100000
v -3.250000 -2.250000 0.100000
v -3.250000 2.250000 0.100000
v 3.250000 2.250000 0.100000
vt 0.100000 -0.719948 0.000000
vt 0.000000 -0.719948 0.000000
vt 0.100000 -0.785398 0.000000
vt 0.000000 -0.785398 0.000000
vt 0.100000 0.785398 0.000000
vt 0.000000 0.785398 0.000000
vt 0.100000 0.719948 0.000000
vt 0.000000 0.719948 0.000000
vt 0.100000 0.654498 0.000000
vt 0.000000 0.654498 0.000000
vt 0.100000 0.589049 0.000000
vt 0.000000 0.589049 0.000000
vt 0.100000 0.523599 0.000000
vt 0.000000 0.523599 0.000000
vt 0.100000 0.458149 0.000000
vt 0.000000 0.458149 0.000000
vt 0.100000 0.392699 0.000000
vt 0.000000 0.392699 0.000000
vt 0.100000 0.327249 0.000000
vt 0.000000 0.327249 0.000000
vt 0.100000 0.261799 0.000000
vt 0.000000 0.261799 0.000000
vt 0.100000 0.196350 0.000000
vt 0.000000 0.196350 0.000000
vt 0.100000 0.130900 0.000000
vt 0.000000 0.130900 0.000000
vt 0.100000 0.065450 0.000000
vt 0.000000 0.065450 0.000000
vt 0.100000 0.000000 0.000000
vt 0.000000 0.000000 0.000000
vt 0.100000 -0.065450 0.000000
vt -0.000000 -0.065450 0.000000
vt 0.100000 -0.130900 0.000000
vt -0.000000 -0.130900 0.000000
vt 0.100000 -0.196350 0.000000
vt 0.000000 -0.196350 0.000000
vt 0.100000 -0.261799 0.000000
vt -0.000000 -0.261799 0.000000
vt 0.100000 -0.327249 0.000000
vt -0.000000 -0.327249 0.000000
vt 0.100000 -0.392699 0.000000
vt 0.000000 -0.392699 0.000000
vt 0.100000 -0.458149 0.000000
vt 0.000000 -0.458149 0.000000
vt 0.100000 -0.523599 0.000000
vt 0.000000 -0.523599 0.000000
vt 0.100000 -0.589049 0.000000
vt 0.000000 -0.589049 0.000000
vt 0.100000 -0.654498 0.000000
vt 0.000000 -0.654498 0.000000
vt -0.000000 0.100000 0.000000
vt -0.500000 0.100000 0.000000
vt -0.000000 0.000000 0.000000
vt -0.500000 0.000000 0.000000
vt -0.000000 0.100000 0.000000
vt -4.000000 0.100000 0.000000
vt -0.000000 0.000000 0.000000
vt -4.000000 0.000000 0.000000
vt -0.000000 0.100000 0.000000
vt -0.500000 0.100000 0.000000
vt -0.000000 0.000000 0.000000
vt -0.500000 0.000000 0.000000
vt -0.150000 4.000000 0.000000
vt -0.150000 3.500000 0.000000
vt -0.000000 4.000000 0.000000
vt -0.000000 0.000000 0.000000
vt -4.150000 3.500000 0.000000
vt -4.300000 0.000000 0.000000
vt -4.300000 4.000000 0.000000
vt -4.150000 4.000000 0.000000
vt -6.300000 0.000000 0.000000
vt -0.000000 0.000000 0.000000
vt -6.300000 4.000000 0.000000
vt -0.000000 4.000000 0.000000
vt -4.300000 0.000000 0.000000
vt 0.000000 0.000000 0.000000
vt -4.300000 4.000000 0.000000
vt 0.000000 4.000000 0.000000
vt -6.300000 0.000000 0.000000
vt 0.000000 0.000000 0.000000
vt -6.300000 4.000000 0.000000
vt 0.000000 4.000000 0.000000
vt -0.726130 1.703805 0.000000
vt -0.734648 1.768510 0.000000
vt -3.150000 2.000000 0.000000
vt -0.726130 1.833215 0.000000
vt -3.150000 2.150000 0.000000
vt -0.701154 1.893510 0.000000
vt -0.661425 1.945287 0.000000
vt -0.609648 1.985016 0.000000
vt -0.549353 2.009992 0.000000
vt -0.484648 2.018510 0.000000
vt 3.150000 2.150000 0.000000
vt -0.419943 2.009992 0.000000
vt -0.359648 1.985016 0.000000
vt -0.307871 1.945287 0.000000
vt -0.268142 1.893510 0.000000
vt -0.243167 1.833215 0.000000
vt -0.234648 1.768510 0.000000
vt -0.243167 1.703805 0.000000
vt -0.268142 1.643510 0.000000
vt -0.307871 1.591733 0.000000
vt -0.359648 1.552004 0.000000
vt 3.150000 -2.150000 0.000000
vt -0.419943 1.527029 0.000000
vt -0.484648 1.518510 0.000000
vt -3.150000 -2.000000 0.000000
vt -0.549353 1.527029 0.000000
vt -0.609648 1.552004 0.000000
vt -0.661425 1.591733 0.000000
vt -0.701154 1.643510 0.000000
vt -3.150000 -2.150000 0.000000
vt -3.250000 2.000000 0.000000
vt -3.250000 -2.000000 0.000000
vt 0.726130 1.833215 0.000000
vt 0.734648 1.768510 0.000000
vt 3.250000 2.250000 0.000000
vt 0.726130 1.703805 0.000000
vt 0.701154 1.643510 0.000000
vt 0.661425 1.591733 0.000000
vt 0.609648 1.552004 0.000000
vt 3.250000 -2.250000 0.000000
vt 0.549353 1.527029 0.000000
vt 0.484648 1.518510 0.000000
vt -3.250000 -2.250000 0.000000
vt 0.419943 1.527029 0.000000
vt 0.359648 1.552004 0.000000
vt 0.307871 1.591733 0.000000
vt -3.250000 2.250000 0.000000
vt 0.268142 1.643510 0.000000
vt 0.243167 1.703805 0.000000
vt 0.234648 1.768510 0.000000
vt 0.243167 1.833215 0.000000
vt 0.268142 1.893510 0.000000
vt 0.307871 1.945287 0.000000
vt 0.359648 1.985016 0.000000
vt 0.419943 2.009992 0.000000
vt 0.484648 2.018510 0.000000
vt 0.549353 2.009992 0.000000
vt 0.609648 1.985016 0.000000
vt 0.661425 1.945287 0.000000
vt 0.701154 1.893510 0.000000
vt 3.150000 2.150000 0.000000
vt -3.250000 2.250000 0.000000
vt -3.150000 2.150000 0.000000
vt -3.250000 -2.250000 0.000000
vt -3.150000 -2.150000 0.000000
vt 3.250000 -2.250000 0.000000
vt 3.150000 -2.150000 0.000000
vt 3.250000 2.250000 0.000000
vt 0.000000 -0.100000 0.000000
vt 6.500000 -0.100000 0.000000
vt 0.000000 4.000000 0.000000
vt 6.500000 4.000000 0.000000
vt 4.250000 3.400000 0.000000
vt 4.500000 4.000000 0.000000
vt 4.250000 3.900000 0.000000
vt 0.000000 4.000000 0.000000
vt 0.250000 3.900000 0.000000
vt 0.250000 3.400000 0.000000
vt 0.000000 -0.100000 0.000000
vt 4.500000 -0.100000 0.000000
vt 0.000000 -0.100000 0.000000
vt 6.500000 -0.100000 0.000000
vt -0.000000 4.000000 0.000000
vt 6.500000 4.000000 0.000000
vt 0.000000 -0.100000 0.000000
vt 4.500000 -0.100000 0.000000
vt -0.000000 4.000000 0.000000
vt 4.500000 4.000000 0.000000
vn -0.965926 0.258819 0.000000
vn -0.965926 0.258819 0.000000
vn -1.000000 0.000000 0.000000
vn -1.000000 0.000000 0.000000
vn -0.965926 -0.258819 -0.000000
vn -0.965926 -0.258819 -0.000000
vn -0.866025 -0.500000 -0.000000
vn -0.866025 -0.500000 -0.000000
vn -0.707107 -0.707107 -0.000000
vn -0.707107 -0.707107 -0.000000
vn -0.500000 -0.866025 -0.000000
vn -0.500000 -0.866025 -0.000000
vn -0.258819 -0.965926 -0.000000
vn -0.258819 -0.965926 -0.000000
vn 0.000000 -1.000000 0.000000
vn 0.000000 -1.000000 0.000000
vn 0.258819 -0.965926 0.000000
vn 0.258819 -0.965926 0.000000
vn 0.500000 -0.866025 0.000000
vn 0.500000 -0.866025 0.000000
vn 0.707107 -0.707107 0.000000
vn 0.707107 -0.707107 0.000000
vn 0.866025 -0.500000 0.000000
vn 0.866025 -0.500000 0.000000
vn 0.965926 -0.258819 0.000000
vn 0.965926 -0.258819 0.000000
vn 1.000000 -0.000000 0.000000
vn 1.000000 -0.000000 0.000000
vn 0.965926 0.258819 0.000000
vn 0.965926 0.258819 0.000000
vn 0.866025 0.500000 0.000000
vn 0.866025 0.500000 0.000000
vn 0.707107 0.707107 0.000000
vn 0.707107 0.707107 0.000000
vn 0.500000 0.866025 0.000000
vn 0.500000 0.866025 0.000000
vn 0.258819 0.965926 0.000000
vn 0.258819 0.965926 0.000000
vn 0.000000 1.000000 0.000000
vn 0.000000 1.000000 0.000000
vn -0.258819 0.965926 0.000000
vn -0.258819 0.965926 0.000000
vn -0.500000 0.866025 0.000000
vn -0.500000 0.866025 0.000000
vn -0.707107 0.707107 0.000000
vn -0.707107 0.707107 0.000000
vn -0.866025 0.500000 0.000000
vn -0.866025 0.500000 0.000000
vn -0.000000 1.000000 -0.000000
vn -0.000000 1.000000 -0.000000
vn -0.000000 1.000000 -0.000000
vn -0.000000 1.000000 -0.000000
vn 0.000000 0.000000 1.000000
vn 0.000000 0.000000 1.000000
vn 0.000000 0.000000 1.000000
vn 0.000000 0.000000 1.000000
vn -0.000000 -1.000000 -0.000000
vn -0.000000 -1.000000 -0.000000
vn -0.000000 -1.000000 -0.000000
vn -0.000000 -1.000000 -0.000000
vn -1.000000 -0.000000 0.000000
vn -1.000000 -0.000000 0.000000
vn -1.000000 -0.000000 0.000000
vn -1.000000 -0.000000 0.000000
vn -1.000000 -0.000000 0.000000
vn -1.000000 -0.000000 0.000000
vn -1.000000 -0.000000 0.000000
vn -1.000000 -0.000000 0.000000
vn -0.000000 1.000000 -0.000000
vn -0.000000 1.000000 -0.000000
vn -0.000000 1.000000 -0.000000
vn -0.000000 1.000000 -0.000000
vn 1.000000 -0.000000 -0.000000
vn 1.000000 -0.000000 -0.000000
vn 1.000000 -0.000000 -0.000000
vn 1.000000 -0.000000 -0.000000
vn -0.000000 -1.000000 -0.000000
vn -0.000000 -1.000000 -0.000000
vn -0.000000 -1.000000 -0.000000
vn -0.000000 -1.000000 -0.000000
vn -0.000000 -0.000000 -1.000000
vn -0.000000 -0.000000 -1.000000
vn -0.000000 -0.000000 -1.000000
vn -0.000000 -0.000000 -1.000000
vn -0.000000 -0.000000 -1.000000
vn -0.000000 -0.000000 -1.000000
vn -0.000000 -0.000000 -1.000000
vn -0.000000 -0.000000 -1.000000
vn -0.000000 -0.000000 -1.000000
vn -0.000000 -0.000000 -1.000000
vn -0.000000 -0.000000 -1.000000
vn -0.000000 -0.000000 -1.000000
vn -0.000000 -0.000000 -1.000000
vn -0.000000 -0.000000 -1.000000
vn -0.000000 -0.000000 -1.000000
vn -0.000000 -0.000000 -1.000000
vn -0.000000 -0.000000 -1.000000
vn -0.000000 -0.000000 -1.000000
vn -0.000000 -0.000000 -1.000000
vn -0.000000 -0.000000 -1.000000
vn -0.000000 -0.000000 -1.000000
vn -0.000000 -0.000000 -1.000000
vn -0.000000 -0.000000 -1.000000
vn -0.000000 -0.000000 -1.000000
vn -0.000000 -0.000000 -1.000000
vn -0.000000 -0.000000 -1.000000
vn -0.000000 -0.000000 -1.000000
vn -0.000000 -0.000000 -1.000000
vn -0.000000 -0.000000 -1.000000
vn -0.000000 -0.000000 -1.000000
vn -0.000000 -0.000000 -1.000000
vn -0.000000 -0.000000 -1.000000
vn 0.000000 0.000000 1.000000
vn 0.000000 0.000000 1.000000
vn 0.000000 0.000000 1.000000
vn 0.000000 0.000000 1.000000
vn 0.000000 0.000000 1.000000
vn 0.000000 0.000000 1.000000
vn 0.000000 0.000000 1.000000
vn 0.000000 0.000000 1.000000
vn 0.000000 0.000000 1.000000
vn 0.000000 0.000000 1.000000
vn 0.000000 0.000000 1.000000
vn 0.000000 0.000000 1.000000
vn 0.000000 0.000000 1.000000
vn 0.000000 0.000000 1.000000
vn 0.000000 0.000000 1.000000
vn 0.000000 0.000000 1.000000
vn 0.000000 0.000000 1.000000
vn 0.000000 0.000000 1.000000
vn 0.000000 0.000000 1.000000
vn 0.000000 0.000000 1.000000
vn 0.000000 0.000000 1.000000
vn 0.000000 0.000000 1.000000
vn 0.000000 0.000000 1.000000
vn 0.000000 0.000000 1.000000
vn 0.000000 0.000000 1.000000
vn 0.000000 0.000000 1.000000
vn 0.000000 0.000000 1.000000
vn 0.000000 0.000000 1.000000
vn -0.000000 -0.000000 -1.000000
vn -0.000000 -0.000000 -1.000000
vn -0.000000 -0.000000 -1.000000
vn -0.000000 -0.000000 -1.000000
vn -0.000000 -0.000000 -1.000000
vn -0.000000 -0.000000 -1.000000
vn -0.000000 -0.000000 -1.000000
vn -0.000000 -0.000000 -1.000000
vn 0.000000 -1.000000 0.000000
vn 0.000000 -1.000000 0.000000
vn 0.000000 -1.000000 0.000000
vn 0.000000 -1.000000 0.000000
vn 1.000000 0.000000 0.000000
vn 1.000000 0.000000 0.000000
vn 1.000000 0.000000 0.000000
vn 1.000000 0.000000 0.000000
vn 1.000000 0.000000 0.000000
vn 1.000000 0.000000 0.000000
vn 1.000000 0.000000 0.000000
vn 1.000000 0.000000 0.000000
vn 0.000000 1.000000 0.000000
vn 0.000000 1.000000 0.000000
vn 0.000000 1.000000 0.000000
vn 0.000000 1.000000 0.000000
vn -1.000000 0.000000 0.000000
vn -1.000000 0.000000 0.000000
vn -1.000000 0.000000 0.000000
vn -1.000000 0.000000 0.000000
usemtl Steel_-_Satin
f 2/1/1 48/2/2 1/3/3
f 1/3/3 48/2/2 25/4/4
f 1/5/3 25/6/4 24/7/5
f 24/7/5 25/6/4 26/8/6
f 24/7/5 26/8/6 23/9/7
f 23/9/7 26/8/6 27/10/8
f 23/9/7 27/10/8 22/11/9
f 22/11/9 27/10/8 28/12/10
f 22/11/9 28/12/10 21/13/11
f 21/13/11 28/12/10 29/14/12
f 21/13/11 29/14/12 20/15/13
f 20/15/13 29/14/12 30/16/14
f 20/15/13 30/16/14 19/17/15
f 19/17/15 30/16/14 31/18/16
f 19/17/15 31/18/16 18/19/17
f 18/19/17 31/18/16 32/20/18
f 18/19/17 32/20/18 17/21/19
f 17/21/19 32/20/18 33/22/20
f 17/21/19 33/22/20 16/23/21
f 16/23/21 33/22/20 34/24/22
f 16/23/21 34/24/22 15/25/23
f 15/25/23 34/24/22 35/26/24
f 15/25/23 35/26/24 14/27/25
f 14/27/25 35/26/24 36/28/26
f 14/27/25 36/28/26 13/29/27
f 13/29/27 36/28/26 37/30/28
f 13/29/27 37/30/28 12/31/29
f 12/31/29 37/30/28 38/32/30
f 12/31/29 38/32/30 11/33/31
f 11/33/31 38/32/30 39/34/32
f 11/33/31 39/34/32 10/35/33
f 10/35/33 39/34/32 40/36/34
f 10/35/33 40/36/34 9/37/35
f 9/37/35 40/36/34 41/38/36
f 9/37/35 41/38/36 8/39/37
f 8/39/37 41/38/36 42/40/38
f 8/39/37 42/40/38 7/41/39
f 7/41/39 42/40/38 43/42/40
f 7/41/39 43/42/40 6/43/41
f 6/43/41 43/42/40 44/44/42
f 6/43/41 44/44/42 5/45/43
f 5/45/43 44/44/42 45/46/44
f 5/45/43 45/46/44 4/47/45
f 4/47/45 45/46/44 46/48/46
f 4/47/45 46/48/46 3/49/47
f 3/49/47 46/48/46 47/50/48
f 3/49/47 47/50/48 2/1/1
f 2/1/1 47/50/48 48/2/2
f 49/51/49 50/52/50 52/53/51
f 52/53/51 50/52/50 51/54/52
f 53/55/53 49/56/54 54/57/55
f 54/57/55 49/56/54 52/58/56
f 55/59/57 53/60/58 56/61/59
f 56/61/59 53/60/58 54/62/60
f 50/63/61 49/64/62 60/65/63
f 60/65/63 49/64/62 59/66/64
f 59/66/64 49/64/62 53/67/65
f 59/66/64 53/67/65 58/68/66
f 58/68/66 53/67/65 57/69/67
f 57/69/67 53/67/65 55/70/68
f 59/71/69 61/72/70 60/73/71
f 60/73/71 61/72/70 62/74/72
f 61/75/73 63/76/74 62/77/75
f 62/77/75 63/76/74 64/78/76
f 63/79/77 58/80/78 64/81/79
f 64/81/79 58/80/78 57/82/80
f 2/83/81 1/84/82 55/85/83
f 55/85/83 1/84/82 24/86/84
f 55/85/83 24/86/84 57/87/85
f 57/87/85 24/86/84 23/88/86
f 57/87/85 23/88/86 22/89/87
f 22/89/87 21/90/88 57/87/85
f 57/87/85 21/90/88 20/91/89
f 57/87/85 20/91/89 19/92/90
f 57/87/85 19/92/90 64/93/91
f 64/93/91 19/92/90 18/94/92
f 64/93/91 18/94/92 17/95/93
f 17/95/93 16/96/94 64/93/91
f 64/93/91 16/96/94 15/97/95
f 64/93/91 15/97/95 14/98/96
f 14/98/96 13/99/97 64/93/91
f 64/93/91 13/99/97 12/100/98
f 64/93/91 12/100/98 11/101/99
f 11/101/99 10/102/100 64/93/91
f 64/93/91 10/102/100 9/103/101
f 64/93/91 9/103/101 62/104/102
f 62/104/102 9/103/101 8/105/103
f 62/104/102 8/105/103 7/106/104
f 62/104/102 7/106/104 50/107/105
f 50/107/105 7/106/104 6/108/106
f 50/107/105 6/108/106 5/109/107
f 50/107/105 5/109/107 55/85/83
f 55/85/83 5/109/107 4/110/108
f 55/85/83 4/110/108 3/111/109
f 3/111/109 2/83/81 55/85/83
f 50/107/105 60/112/110 62/104/102
f 56/113/111 51/114/112 55/85/83
f 55/85/83 51/114/112 50/107/105
f 26/115/113 25/116/114 67/117/115
f 67/117/115 25/116/114 48/118/116
f 67/117/115 48/118/116 47/119/117
f 47/119/117 46/120/118 67/117/115
f 67/117/115 46/120/118 45/121/119
f 67/117/115 45/121/119 66/122/120
f 66/122/120 45/121/119 44/123/121
f 66/122/120 44/123/121 43/124/122
f 66/122/120 43/124/122 65/125/123
f 65/125/123 43/124/122 42/126/124
f 65/125/123 42/126/124 41/127/125
f 41/127/125 40/128/126 65/125/123
f 65/125/123 40/128/126 68/129/127
f 68/129/127 40/128/126 39/130/128
f 68/129/127 39/130/128 38/131/129
f 38/131/129 37/132/130 68/129/127
f 68/129/127 37/132/130 36/133/131
f 68/129/127 36/133/131 35/134/132
f 35/134/132 34/135/133 68/129/127
f 68/129/127 34/135/133 33/136/134
f 68/129/127 33/136/134 32/137/135
f 32/137/135 31/138/136 68/129/127
f 68/129/127 31/138/136 67/117/115
f 67/117/115 31/138/136 30/139/137
f 67/117/115 30/139/137 29/140/138
f 29/140/138 28/141/139 67/117/115
f 67/117/115 28/141/139 27/142/140
f 67/117/115 27/142/140 26/115/113
f 59/143/141 70/144/142 61/145/143
f 61/145/143 70/144/142 71/146/144
f 61/145/143 71/146/144 63/147/145
f 63/147/145 71/146/144 72/148/146
f 63/147/145 72/148/146 58/149/147
f 58/149/147 72/148/146 59/143/141
f 59/143/141 72/148/146 69/150/148
f 59/143/141 69/150/148 70/144/142
f 70/151/149 69/152/150 65/153/151
f 65/153/151 69/152/150 66/154/152
f 54/155/153 67/156/154 56/157/155
f 56/157/155 67/156/154 66/158/156
f 56/157/155 66/158/156 51/159/157
f 51/159/157 66/158/156 52/160/158
f 52/160/158 66/158/156 69/161/159
f 52/160/158 69/161/159 72/162/160
f 67/156/154 54/155/153 72/162/160
f 72/162/160 54/155/153 52/160/158
f 72/163/161 71/164/162 67/165/163
f 67/165/163 71/164/162 68/166/164
f 71/167/165 70/168/166 68/169/167
f 68/169/167 70/168/166 65/170/168
# 72 vertices
# 170 texture params
# 168 normals
# 148 facets

# 1 groups
